<mxfile host="app.diagrams.net" agent="Mozilla/5.0 (Macintosh; Intel Mac OS X 10_15_7) AppleWebKit/537.36 (KHTML, like Gecko) Chrome/126.0.0.0 Safari/537.36" version="24.7.5">
  <diagram name="Page-1" id="MTJQl3-Kt01k6malA2KS">
    <mxGraphModel dx="1851" dy="561" grid="1" gridSize="10" guides="1" tooltips="1" connect="1" arrows="1" fold="1" page="1" pageScale="1" pageWidth="827" pageHeight="1169" math="0" shadow="0">
      <root>
        <mxCell id="0" />
        <mxCell id="1" parent="0" />
        <mxCell id="nN2-B50AMviymEDOJhhH-7" style="edgeStyle=orthogonalEdgeStyle;rounded=0;orthogonalLoop=1;jettySize=auto;html=1;entryX=0.5;entryY=0;entryDx=0;entryDy=0;" parent="1" source="nN2-B50AMviymEDOJhhH-1" target="nN2-B50AMviymEDOJhhH-2" edge="1">
          <mxGeometry relative="1" as="geometry" />
        </mxCell>
        <mxCell id="nN2-B50AMviymEDOJhhH-1" value="Two Integer Sum" style="rounded=0;whiteSpace=wrap;html=1;" parent="1" vertex="1">
          <mxGeometry x="150" y="130" width="120" height="60" as="geometry" />
        </mxCell>
        <mxCell id="nN2-B50AMviymEDOJhhH-8" style="edgeStyle=orthogonalEdgeStyle;rounded=0;orthogonalLoop=1;jettySize=auto;html=1;entryX=0.5;entryY=0;entryDx=0;entryDy=0;" parent="1" source="nN2-B50AMviymEDOJhhH-2" target="nN2-B50AMviymEDOJhhH-3" edge="1">
          <mxGeometry relative="1" as="geometry" />
        </mxCell>
        <mxCell id="nN2-B50AMviymEDOJhhH-2" value="Given an array of integers and a target sum. return the indices i and j where array[i] + array[j] = sum and i != j" style="rounded=0;whiteSpace=wrap;html=1;" parent="1" vertex="1">
          <mxGeometry x="50" y="220" width="320" height="140" as="geometry" />
        </mxCell>
        <mxCell id="nN2-B50AMviymEDOJhhH-9" style="edgeStyle=orthogonalEdgeStyle;rounded=0;orthogonalLoop=1;jettySize=auto;html=1;entryX=0.5;entryY=0;entryDx=0;entryDy=0;" parent="1" source="nN2-B50AMviymEDOJhhH-3" target="nN2-B50AMviymEDOJhhH-4" edge="1">
          <mxGeometry relative="1" as="geometry" />
        </mxCell>
        <mxCell id="nN2-B50AMviymEDOJhhH-3" value="&lt;div&gt;Input:&amp;nbsp;&lt;/div&gt;&lt;div&gt;nums = [3,4,5,6], target = 7&lt;/div&gt;&lt;div&gt;&lt;br&gt;&lt;/div&gt;&lt;div&gt;Output: [0,1]&lt;/div&gt;&lt;div&gt;&lt;br&gt;&lt;/div&gt;" style="rounded=0;whiteSpace=wrap;html=1;" parent="1" vertex="1">
          <mxGeometry x="115" y="400" width="190" height="100" as="geometry" />
        </mxCell>
        <mxCell id="nN2-B50AMviymEDOJhhH-10" style="edgeStyle=orthogonalEdgeStyle;rounded=0;orthogonalLoop=1;jettySize=auto;html=1;" parent="1" source="nN2-B50AMviymEDOJhhH-4" target="nN2-B50AMviymEDOJhhH-5" edge="1">
          <mxGeometry relative="1" as="geometry" />
        </mxCell>
        <mxCell id="nN2-B50AMviymEDOJhhH-11" style="edgeStyle=orthogonalEdgeStyle;rounded=0;orthogonalLoop=1;jettySize=auto;html=1;" parent="1" source="nN2-B50AMviymEDOJhhH-4" target="nN2-B50AMviymEDOJhhH-6" edge="1">
          <mxGeometry relative="1" as="geometry" />
        </mxCell>
        <mxCell id="nN2-B50AMviymEDOJhhH-4" value="Use map to track indexes and num where num == arr[i]. Check if target - arr[i] value exists in map where i index and map index values are different. If it exists, return i and map index in ascending order" style="rounded=0;whiteSpace=wrap;html=1;" parent="1" vertex="1">
          <mxGeometry x="120" y="560" width="180" height="100" as="geometry" />
        </mxCell>
        <mxCell id="nN2-B50AMviymEDOJhhH-5" value="Time complexity: O(N) as we loop the whole array" style="rounded=0;whiteSpace=wrap;html=1;" parent="1" vertex="1">
          <mxGeometry x="30" y="730" width="170" height="90" as="geometry" />
        </mxCell>
        <mxCell id="nN2-B50AMviymEDOJhhH-6" value="Space complexity: O(N) as we store the whole array in map" style="rounded=0;whiteSpace=wrap;html=1;" parent="1" vertex="1">
          <mxGeometry x="240" y="730" width="170" height="90" as="geometry" />
        </mxCell>
        <mxCell id="nN2-B50AMviymEDOJhhH-17" style="edgeStyle=orthogonalEdgeStyle;rounded=0;orthogonalLoop=1;jettySize=auto;html=1;" parent="1" source="nN2-B50AMviymEDOJhhH-12" target="nN2-B50AMviymEDOJhhH-13" edge="1">
          <mxGeometry relative="1" as="geometry" />
        </mxCell>
        <mxCell id="nN2-B50AMviymEDOJhhH-12" value="Anagram groups" style="rounded=0;whiteSpace=wrap;html=1;" parent="1" vertex="1">
          <mxGeometry x="860" y="130" width="120" height="60" as="geometry" />
        </mxCell>
        <mxCell id="nN2-B50AMviymEDOJhhH-18" style="edgeStyle=orthogonalEdgeStyle;rounded=0;orthogonalLoop=1;jettySize=auto;html=1;" parent="1" source="nN2-B50AMviymEDOJhhH-13" target="nN2-B50AMviymEDOJhhH-15" edge="1">
          <mxGeometry relative="1" as="geometry" />
        </mxCell>
        <mxCell id="nN2-B50AMviymEDOJhhH-13" value="Given an array of strings str, group all anagrams together into sublists" style="rounded=0;whiteSpace=wrap;html=1;" parent="1" vertex="1">
          <mxGeometry x="720" y="240" width="400" height="100" as="geometry" />
        </mxCell>
        <mxCell id="nN2-B50AMviymEDOJhhH-16" style="edgeStyle=orthogonalEdgeStyle;rounded=0;orthogonalLoop=1;jettySize=auto;html=1;entryX=1;entryY=0.5;entryDx=0;entryDy=0;" parent="1" source="nN2-B50AMviymEDOJhhH-14" target="nN2-B50AMviymEDOJhhH-12" edge="1">
          <mxGeometry relative="1" as="geometry" />
        </mxCell>
        <mxCell id="nN2-B50AMviymEDOJhhH-14" value="An anagram is a string that contains the same characters as another string" style="text;html=1;align=center;verticalAlign=middle;whiteSpace=wrap;rounded=0;" parent="1" vertex="1">
          <mxGeometry x="1110" y="142.5" width="290" height="35" as="geometry" />
        </mxCell>
        <mxCell id="nN2-B50AMviymEDOJhhH-22" style="edgeStyle=orthogonalEdgeStyle;rounded=0;orthogonalLoop=1;jettySize=auto;html=1;" parent="1" source="nN2-B50AMviymEDOJhhH-15" target="nN2-B50AMviymEDOJhhH-19" edge="1">
          <mxGeometry relative="1" as="geometry" />
        </mxCell>
        <mxCell id="nN2-B50AMviymEDOJhhH-15" value="&lt;div&gt;Input: strs = [&quot;act&quot;,&quot;pots&quot;,&quot;tops&quot;,&quot;cat&quot;,&quot;stop&quot;,&quot;hat&quot;]&lt;/div&gt;&lt;div&gt;&lt;br&gt;&lt;/div&gt;&lt;div&gt;Output: [[&quot;hat&quot;],[&quot;act&quot;, &quot;cat&quot;],[&quot;stop&quot;, &quot;pots&quot;, &quot;tops&quot;]]&lt;/div&gt;&lt;div&gt;&lt;br&gt;&lt;/div&gt;" style="rounded=0;whiteSpace=wrap;html=1;" parent="1" vertex="1">
          <mxGeometry x="720" y="410" width="400" height="100" as="geometry" />
        </mxCell>
        <mxCell id="nN2-B50AMviymEDOJhhH-23" style="edgeStyle=orthogonalEdgeStyle;rounded=0;orthogonalLoop=1;jettySize=auto;html=1;" parent="1" source="nN2-B50AMviymEDOJhhH-19" target="nN2-B50AMviymEDOJhhH-20" edge="1">
          <mxGeometry relative="1" as="geometry" />
        </mxCell>
        <mxCell id="nN2-B50AMviymEDOJhhH-19" value="Use map to store the sorted word and value in list in original form" style="rounded=0;whiteSpace=wrap;html=1;" parent="1" vertex="1">
          <mxGeometry x="780" y="555" width="280" height="60" as="geometry" />
        </mxCell>
        <mxCell id="nN2-B50AMviymEDOJhhH-24" style="edgeStyle=orthogonalEdgeStyle;rounded=0;orthogonalLoop=1;jettySize=auto;html=1;" parent="1" source="nN2-B50AMviymEDOJhhH-20" target="nN2-B50AMviymEDOJhhH-21" edge="1">
          <mxGeometry relative="1" as="geometry" />
        </mxCell>
        <mxCell id="nN2-B50AMviymEDOJhhH-20" value="Check if the new sorted word exists in the map. If exists, store it in the value list. If not, create a new key value" style="rounded=0;whiteSpace=wrap;html=1;" parent="1" vertex="1">
          <mxGeometry x="780" y="650" width="280" height="60" as="geometry" />
        </mxCell>
        <mxCell id="nN2-B50AMviymEDOJhhH-21" value="Return the map values in list form" style="rounded=0;whiteSpace=wrap;html=1;" parent="1" vertex="1">
          <mxGeometry x="780" y="750" width="280" height="60" as="geometry" />
        </mxCell>
        <mxCell id="1y-f06pbk2HALnvQV5Nx-2" style="edgeStyle=orthogonalEdgeStyle;rounded=0;orthogonalLoop=1;jettySize=auto;html=1;" parent="1" source="nN2-B50AMviymEDOJhhH-25" target="nN2-B50AMviymEDOJhhH-26" edge="1">
          <mxGeometry relative="1" as="geometry" />
        </mxCell>
        <mxCell id="nN2-B50AMviymEDOJhhH-25" value="Top K Elements in List" style="rounded=0;whiteSpace=wrap;html=1;" parent="1" vertex="1">
          <mxGeometry x="1840" y="130" width="270" height="60" as="geometry" />
        </mxCell>
        <mxCell id="1y-f06pbk2HALnvQV5Nx-3" style="edgeStyle=orthogonalEdgeStyle;rounded=0;orthogonalLoop=1;jettySize=auto;html=1;" parent="1" source="nN2-B50AMviymEDOJhhH-26" target="nN2-B50AMviymEDOJhhH-27" edge="1">
          <mxGeometry relative="1" as="geometry" />
        </mxCell>
        <mxCell id="nN2-B50AMviymEDOJhhH-26" value="Given an integer array and an integer k, return the k top most frequent elements" style="rounded=0;whiteSpace=wrap;html=1;" parent="1" vertex="1">
          <mxGeometry x="1765" y="260" width="420" height="100" as="geometry" />
        </mxCell>
        <mxCell id="1y-f06pbk2HALnvQV5Nx-5" style="edgeStyle=orthogonalEdgeStyle;rounded=0;orthogonalLoop=1;jettySize=auto;html=1;entryX=0.5;entryY=0;entryDx=0;entryDy=0;" parent="1" source="nN2-B50AMviymEDOJhhH-27" target="1y-f06pbk2HALnvQV5Nx-1" edge="1">
          <mxGeometry relative="1" as="geometry" />
        </mxCell>
        <mxCell id="1y-f06pbk2HALnvQV5Nx-6" style="edgeStyle=orthogonalEdgeStyle;rounded=0;orthogonalLoop=1;jettySize=auto;html=1;" parent="1" source="nN2-B50AMviymEDOJhhH-27" target="1y-f06pbk2HALnvQV5Nx-4" edge="1">
          <mxGeometry relative="1" as="geometry" />
        </mxCell>
        <mxCell id="nN2-B50AMviymEDOJhhH-27" value="use Map to track the count of nums. convert map key and values to list and sort the list by values in descending order. Take the first k keys and return it as integer array" style="rounded=0;whiteSpace=wrap;html=1;" parent="1" vertex="1">
          <mxGeometry x="1765" y="440" width="420" height="100" as="geometry" />
        </mxCell>
        <mxCell id="nN2-B50AMviymEDOJhhH-28" value="Time Complexity: O(N*LogN) where N is the length of the array and logN is the sorting time" style="rounded=0;whiteSpace=wrap;html=1;" parent="1" vertex="1">
          <mxGeometry x="650" y="850" width="280" height="60" as="geometry" />
        </mxCell>
        <mxCell id="nN2-B50AMviymEDOJhhH-29" value="Space Complexity: O(N) + O(N) = 2O(N) = O(N) where O(N) is the space of the map and O(N) is the result list" style="rounded=0;whiteSpace=wrap;html=1;" parent="1" vertex="1">
          <mxGeometry x="990" y="850" width="280" height="60" as="geometry" />
        </mxCell>
        <mxCell id="1y-f06pbk2HALnvQV5Nx-1" value="Time Complexity: O(N) as we loop through the entire array" style="rounded=0;whiteSpace=wrap;html=1;" parent="1" vertex="1">
          <mxGeometry x="1654" y="630" width="240" height="100" as="geometry" />
        </mxCell>
        <mxCell id="1y-f06pbk2HALnvQV5Nx-4" value="Space Complexity: O(N) + O(N) = 2O(N) = O(N). We store the nums in map O(N) and return it as integer array O(N)" style="rounded=0;whiteSpace=wrap;html=1;" parent="1" vertex="1">
          <mxGeometry x="2050" y="630" width="240" height="100" as="geometry" />
        </mxCell>
        <mxCell id="1y-f06pbk2HALnvQV5Nx-13" style="edgeStyle=orthogonalEdgeStyle;rounded=0;orthogonalLoop=1;jettySize=auto;html=1;" parent="1" source="1y-f06pbk2HALnvQV5Nx-7" target="1y-f06pbk2HALnvQV5Nx-9" edge="1">
          <mxGeometry relative="1" as="geometry" />
        </mxCell>
        <mxCell id="1y-f06pbk2HALnvQV5Nx-7" value="String Encode and Decode" style="rounded=0;whiteSpace=wrap;html=1;" parent="1" vertex="1">
          <mxGeometry x="2580" y="130" width="250" height="60" as="geometry" />
        </mxCell>
        <mxCell id="1y-f06pbk2HALnvQV5Nx-14" style="edgeStyle=orthogonalEdgeStyle;rounded=0;orthogonalLoop=1;jettySize=auto;html=1;" parent="1" source="1y-f06pbk2HALnvQV5Nx-9" target="1y-f06pbk2HALnvQV5Nx-10" edge="1">
          <mxGeometry relative="1" as="geometry" />
        </mxCell>
        <mxCell id="1y-f06pbk2HALnvQV5Nx-9" value="Design an algorithm to encode a list of strings to a single string. The encoded string is then decoded back to the original list of strings." style="rounded=0;whiteSpace=wrap;html=1;" parent="1" vertex="1">
          <mxGeometry x="2510" y="280" width="390" height="60" as="geometry" />
        </mxCell>
        <mxCell id="1y-f06pbk2HALnvQV5Nx-15" style="edgeStyle=orthogonalEdgeStyle;rounded=0;orthogonalLoop=1;jettySize=auto;html=1;" parent="1" source="1y-f06pbk2HALnvQV5Nx-10" target="1y-f06pbk2HALnvQV5Nx-11" edge="1">
          <mxGeometry relative="1" as="geometry" />
        </mxCell>
        <mxCell id="1y-f06pbk2HALnvQV5Nx-16" style="edgeStyle=orthogonalEdgeStyle;rounded=0;orthogonalLoop=1;jettySize=auto;html=1;" parent="1" source="1y-f06pbk2HALnvQV5Nx-10" target="1y-f06pbk2HALnvQV5Nx-12" edge="1">
          <mxGeometry relative="1" as="geometry" />
        </mxCell>
        <mxCell id="1y-f06pbk2HALnvQV5Nx-10" value="Use global map to store key and value to decode and encode" style="rounded=0;whiteSpace=wrap;html=1;" parent="1" vertex="1">
          <mxGeometry x="2510" y="420" width="390" height="60" as="geometry" />
        </mxCell>
        <mxCell id="1y-f06pbk2HALnvQV5Nx-11" value="Time Complexity: O(N) as we loop through the entire array" style="rounded=0;whiteSpace=wrap;html=1;" parent="1" vertex="1">
          <mxGeometry x="2410" y="535" width="240" height="100" as="geometry" />
        </mxCell>
        <mxCell id="1y-f06pbk2HALnvQV5Nx-12" value="Space Complexity: O(N) as we loop through the entire array" style="rounded=0;whiteSpace=wrap;html=1;" parent="1" vertex="1">
          <mxGeometry x="2810" y="535" width="240" height="100" as="geometry" />
        </mxCell>
        <mxCell id="SQZrs2Orp9ZpsfdFoQ2q-1" value="Products of Array Discluding Self" style="rounded=0;whiteSpace=wrap;html=1;" parent="1" vertex="1">
          <mxGeometry x="115" y="970" width="230" height="60" as="geometry" />
        </mxCell>
        <mxCell id="SQZrs2Orp9ZpsfdFoQ2q-9" style="edgeStyle=orthogonalEdgeStyle;rounded=0;orthogonalLoop=1;jettySize=auto;html=1;" parent="1" source="SQZrs2Orp9ZpsfdFoQ2q-2" target="SQZrs2Orp9ZpsfdFoQ2q-3" edge="1">
          <mxGeometry relative="1" as="geometry" />
        </mxCell>
        <mxCell id="SQZrs2Orp9ZpsfdFoQ2q-2" value="Given an integer array, return the array output where output[i] is the product of the array discluding itself" style="rounded=0;whiteSpace=wrap;html=1;" parent="1" vertex="1">
          <mxGeometry x="115" y="1100" width="230" height="60" as="geometry" />
        </mxCell>
        <mxCell id="SQZrs2Orp9ZpsfdFoQ2q-10" style="edgeStyle=orthogonalEdgeStyle;rounded=0;orthogonalLoop=1;jettySize=auto;html=1;" parent="1" source="SQZrs2Orp9ZpsfdFoQ2q-3" target="SQZrs2Orp9ZpsfdFoQ2q-4" edge="1">
          <mxGeometry relative="1" as="geometry" />
        </mxCell>
        <mxCell id="SQZrs2Orp9ZpsfdFoQ2q-3" value="&lt;div&gt;Input: nums = [-1,0,1,2,3]&lt;/div&gt;&lt;div&gt;&lt;br&gt;&lt;/div&gt;&lt;div&gt;Output: [0,-6,0,0,0]&lt;/div&gt;&lt;div&gt;&lt;br&gt;&lt;/div&gt;" style="rounded=0;whiteSpace=wrap;html=1;" parent="1" vertex="1">
          <mxGeometry x="115" y="1220" width="230" height="60" as="geometry" />
        </mxCell>
        <mxCell id="SQZrs2Orp9ZpsfdFoQ2q-11" style="edgeStyle=orthogonalEdgeStyle;rounded=0;orthogonalLoop=1;jettySize=auto;html=1;entryX=0.5;entryY=0;entryDx=0;entryDy=0;" parent="1" source="SQZrs2Orp9ZpsfdFoQ2q-4" target="SQZrs2Orp9ZpsfdFoQ2q-5" edge="1">
          <mxGeometry relative="1" as="geometry" />
        </mxCell>
        <mxCell id="SQZrs2Orp9ZpsfdFoQ2q-12" style="edgeStyle=orthogonalEdgeStyle;rounded=0;orthogonalLoop=1;jettySize=auto;html=1;" parent="1" source="SQZrs2Orp9ZpsfdFoQ2q-4" target="SQZrs2Orp9ZpsfdFoQ2q-7" edge="1">
          <mxGeometry relative="1" as="geometry" />
        </mxCell>
        <mxCell id="SQZrs2Orp9ZpsfdFoQ2q-13" style="edgeStyle=orthogonalEdgeStyle;rounded=0;orthogonalLoop=1;jettySize=auto;html=1;" parent="1" source="SQZrs2Orp9ZpsfdFoQ2q-4" target="SQZrs2Orp9ZpsfdFoQ2q-6" edge="1">
          <mxGeometry relative="1" as="geometry" />
        </mxCell>
        <mxCell id="SQZrs2Orp9ZpsfdFoQ2q-4" value="Count the total number of zeroes in the array" style="rounded=0;whiteSpace=wrap;html=1;" parent="1" vertex="1">
          <mxGeometry x="115" y="1340" width="230" height="60" as="geometry" />
        </mxCell>
        <mxCell id="SQZrs2Orp9ZpsfdFoQ2q-5" value="If zeroCount == 0, find the product of the array. Then assign array[i] = product/array[i]" style="rounded=0;whiteSpace=wrap;html=1;" parent="1" vertex="1">
          <mxGeometry x="-160" y="1470" width="230" height="60" as="geometry" />
        </mxCell>
        <mxCell id="SQZrs2Orp9ZpsfdFoQ2q-14" style="edgeStyle=orthogonalEdgeStyle;rounded=0;orthogonalLoop=1;jettySize=auto;html=1;entryX=0.5;entryY=0;entryDx=0;entryDy=0;" parent="1" source="SQZrs2Orp9ZpsfdFoQ2q-6" target="SQZrs2Orp9ZpsfdFoQ2q-8" edge="1">
          <mxGeometry relative="1" as="geometry" />
        </mxCell>
        <mxCell id="SQZrs2Orp9ZpsfdFoQ2q-6" value="If zeroCount == 1, find the product of the array except 0. Then for array[i] == 0, array[i] = product" style="rounded=0;whiteSpace=wrap;html=1;" parent="1" vertex="1">
          <mxGeometry x="115" y="1470" width="230" height="60" as="geometry" />
        </mxCell>
        <mxCell id="SQZrs2Orp9ZpsfdFoQ2q-7" value="If zeroCount &amp;gt; 1, Then assign every array[i] = 0,&amp;nbsp;" style="rounded=0;whiteSpace=wrap;html=1;" parent="1" vertex="1">
          <mxGeometry x="400" y="1470" width="230" height="60" as="geometry" />
        </mxCell>
        <mxCell id="SQZrs2Orp9ZpsfdFoQ2q-8" value="Return the array" style="rounded=0;whiteSpace=wrap;html=1;" parent="1" vertex="1">
          <mxGeometry x="115" y="1590" width="230" height="60" as="geometry" />
        </mxCell>
        <mxCell id="saUwehoPbYmH1re-DA8q-1" value="Products of Array Discluding Self" style="rounded=0;whiteSpace=wrap;html=1;" parent="1" vertex="1">
          <mxGeometry x="115" y="970" width="230" height="60" as="geometry" />
        </mxCell>
        <mxCell id="saUwehoPbYmH1re-DA8q-2" style="edgeStyle=orthogonalEdgeStyle;rounded=0;orthogonalLoop=1;jettySize=auto;html=1;" parent="1" source="saUwehoPbYmH1re-DA8q-3" target="saUwehoPbYmH1re-DA8q-5" edge="1">
          <mxGeometry relative="1" as="geometry" />
        </mxCell>
        <mxCell id="saUwehoPbYmH1re-DA8q-3" value="Given an integer array, return the array output where output[i] is the product of the array discluding itself" style="rounded=0;whiteSpace=wrap;html=1;" parent="1" vertex="1">
          <mxGeometry x="115" y="1100" width="230" height="60" as="geometry" />
        </mxCell>
        <mxCell id="saUwehoPbYmH1re-DA8q-4" style="edgeStyle=orthogonalEdgeStyle;rounded=0;orthogonalLoop=1;jettySize=auto;html=1;" parent="1" source="saUwehoPbYmH1re-DA8q-5" target="saUwehoPbYmH1re-DA8q-9" edge="1">
          <mxGeometry relative="1" as="geometry" />
        </mxCell>
        <mxCell id="saUwehoPbYmH1re-DA8q-5" value="&lt;div&gt;Input: nums = [-1,0,1,2,3]&lt;/div&gt;&lt;div&gt;&lt;br&gt;&lt;/div&gt;&lt;div&gt;Output: [0,-6,0,0,0]&lt;/div&gt;&lt;div&gt;&lt;br&gt;&lt;/div&gt;" style="rounded=0;whiteSpace=wrap;html=1;" parent="1" vertex="1">
          <mxGeometry x="115" y="1220" width="230" height="60" as="geometry" />
        </mxCell>
        <mxCell id="saUwehoPbYmH1re-DA8q-6" style="edgeStyle=orthogonalEdgeStyle;rounded=0;orthogonalLoop=1;jettySize=auto;html=1;entryX=0.5;entryY=0;entryDx=0;entryDy=0;" parent="1" source="saUwehoPbYmH1re-DA8q-9" target="saUwehoPbYmH1re-DA8q-10" edge="1">
          <mxGeometry relative="1" as="geometry" />
        </mxCell>
        <mxCell id="saUwehoPbYmH1re-DA8q-7" style="edgeStyle=orthogonalEdgeStyle;rounded=0;orthogonalLoop=1;jettySize=auto;html=1;" parent="1" source="saUwehoPbYmH1re-DA8q-9" target="saUwehoPbYmH1re-DA8q-13" edge="1">
          <mxGeometry relative="1" as="geometry" />
        </mxCell>
        <mxCell id="saUwehoPbYmH1re-DA8q-8" style="edgeStyle=orthogonalEdgeStyle;rounded=0;orthogonalLoop=1;jettySize=auto;html=1;" parent="1" source="saUwehoPbYmH1re-DA8q-9" target="saUwehoPbYmH1re-DA8q-12" edge="1">
          <mxGeometry relative="1" as="geometry" />
        </mxCell>
        <mxCell id="saUwehoPbYmH1re-DA8q-9" value="Count the total number of zeroes in the array" style="rounded=0;whiteSpace=wrap;html=1;" parent="1" vertex="1">
          <mxGeometry x="115" y="1340" width="230" height="60" as="geometry" />
        </mxCell>
        <mxCell id="saUwehoPbYmH1re-DA8q-10" value="If zeroCount == 0, find the product of the array. Then assign array[i] = product/array[i]" style="rounded=0;whiteSpace=wrap;html=1;" parent="1" vertex="1">
          <mxGeometry x="-160" y="1470" width="230" height="60" as="geometry" />
        </mxCell>
        <mxCell id="saUwehoPbYmH1re-DA8q-11" style="edgeStyle=orthogonalEdgeStyle;rounded=0;orthogonalLoop=1;jettySize=auto;html=1;entryX=0.5;entryY=0;entryDx=0;entryDy=0;" parent="1" source="saUwehoPbYmH1re-DA8q-12" target="saUwehoPbYmH1re-DA8q-14" edge="1">
          <mxGeometry relative="1" as="geometry" />
        </mxCell>
        <mxCell id="saUwehoPbYmH1re-DA8q-12" value="If zeroCount == 1, find the product of the array except 0. Then for array[i] == 0, array[i] = product" style="rounded=0;whiteSpace=wrap;html=1;" parent="1" vertex="1">
          <mxGeometry x="115" y="1470" width="230" height="60" as="geometry" />
        </mxCell>
        <mxCell id="saUwehoPbYmH1re-DA8q-13" value="If zeroCount &amp;gt; 1, Then assign every array[i] = 0,&amp;nbsp;" style="rounded=0;whiteSpace=wrap;html=1;" parent="1" vertex="1">
          <mxGeometry x="400" y="1470" width="230" height="60" as="geometry" />
        </mxCell>
        <mxCell id="saUwehoPbYmH1re-DA8q-14" value="Return the array" style="rounded=0;whiteSpace=wrap;html=1;" parent="1" vertex="1">
          <mxGeometry x="115" y="1590" width="230" height="60" as="geometry" />
        </mxCell>
        <mxCell id="PKbOvXh1hC4f7ejgGBlp-1" value="You are given a 9x9 Sudoku board. Return true if the Sudoku is valid" style="rounded=0;whiteSpace=wrap;html=1;" parent="1" vertex="1">
          <mxGeometry x="680" y="1020" width="180" height="80" as="geometry" />
        </mxCell>
        <mxCell id="PKbOvXh1hC4f7ejgGBlp-2" value="You are given a 9x9 Sudoku board. Return true if the Sudoku is valid" style="rounded=0;whiteSpace=wrap;html=1;" parent="1" vertex="1">
          <mxGeometry x="680" y="1160" width="180" height="80" as="geometry" />
        </mxCell>
        <mxCell id="NIsI1Q-7MkNIX9lUCh3J-3" style="edgeStyle=orthogonalEdgeStyle;rounded=0;orthogonalLoop=1;jettySize=auto;html=1;" edge="1" parent="1" source="NIsI1Q-7MkNIX9lUCh3J-1" target="NIsI1Q-7MkNIX9lUCh3J-2">
          <mxGeometry relative="1" as="geometry" />
        </mxCell>
        <mxCell id="NIsI1Q-7MkNIX9lUCh3J-1" value="&lt;h1 style=&quot;box-sizing: inherit; margin: 0px; padding: 0px; font-size: 19px; font-weight: 400; font-family: helvetica, Arial, sans-serif; color: var(--text-color); text-align: start; background-color: rgb(38, 38, 38);&quot;&gt;Validate Parentheses&lt;/h1&gt;" style="rounded=0;whiteSpace=wrap;html=1;" vertex="1" parent="1">
          <mxGeometry x="-5" y="1754" width="215" height="56" as="geometry" />
        </mxCell>
        <mxCell id="NIsI1Q-7MkNIX9lUCh3J-5" style="edgeStyle=orthogonalEdgeStyle;rounded=0;orthogonalLoop=1;jettySize=auto;html=1;" edge="1" parent="1" source="NIsI1Q-7MkNIX9lUCh3J-2" target="NIsI1Q-7MkNIX9lUCh3J-4">
          <mxGeometry relative="1" as="geometry" />
        </mxCell>
        <mxCell id="NIsI1Q-7MkNIX9lUCh3J-2" value="&lt;div style=&quot;text-align: start;&quot;&gt;&lt;font face=&quot;Arial, sans-serif&quot; color=&quot;#e1e1e1&quot;&gt;&lt;span style=&quot;font-size: 17px; background-color: rgb(38, 38, 38);&quot;&gt;You are given a string s consisting of the following characters: &#39;(&#39;, &#39;)&#39;, &#39;{&#39;, &#39;}&#39;, &#39;[&#39; and &#39;]&#39;.&lt;/span&gt;&lt;/font&gt;&lt;/div&gt;" style="rounded=0;whiteSpace=wrap;html=1;" vertex="1" parent="1">
          <mxGeometry x="-62.5" y="1840" width="330" height="100" as="geometry" />
        </mxCell>
        <mxCell id="NIsI1Q-7MkNIX9lUCh3J-7" style="edgeStyle=orthogonalEdgeStyle;rounded=0;orthogonalLoop=1;jettySize=auto;html=1;" edge="1" parent="1" source="NIsI1Q-7MkNIX9lUCh3J-4" target="NIsI1Q-7MkNIX9lUCh3J-6">
          <mxGeometry relative="1" as="geometry" />
        </mxCell>
        <mxCell id="NIsI1Q-7MkNIX9lUCh3J-4" value="&lt;div style=&quot;text-align: start;&quot;&gt;&lt;p style=&quot;box-sizing: inherit; margin: 24px 0px; padding: 0px; font-family: Arial, sans-serif; color: var(--text-color); line-height: 1.75; font-size: 17px; background-color: rgb(38, 38, 38);&quot;&gt;The input string&amp;nbsp;&lt;code style=&quot;box-sizing: inherit; -webkit-font-smoothing: auto; background-color: var(--code-inline-background-color); color: var(--code-inline-color); font-size: 14.5px; padding: 0.125em; word-break: normal; border-radius: 0.3em; hyphens: none; line-height: 1.5; overflow-wrap: normal; tab-size: 4; word-spacing: normal; border-width: 1px; border-style: solid; border-color: var(--code-inline-border-color); border-image: initial;&quot; class=&quot;hljs language-ebnf&quot;&gt;s&lt;/code&gt;&amp;nbsp;is valid if and only if:&lt;/p&gt;&lt;ol style=&quot;box-sizing: inherit; margin: 24px 0px 24px 1.5em; padding: 0px; font-family: Arial, sans-serif; font-size: 17px; color: rgb(74, 74, 74); background-color: rgb(38, 38, 38);&quot;&gt;&lt;li style=&quot;box-sizing: inherit; margin: 0px 0px 8px 15px; padding: 0px; color: var(--text-color); line-height: 1.75; list-style-position: inside;&quot;&gt;Every open bracket is closed by the same type of close bracket.&lt;/li&gt;&lt;li style=&quot;box-sizing: inherit; margin: 0px 0px 8px 15px; padding: 0px; color: var(--text-color); line-height: 1.75; list-style-position: inside;&quot;&gt;Open brackets are closed in the correct order.&lt;/li&gt;&lt;li style=&quot;box-sizing: inherit; margin: 0px 0px 8px 15px; padding: 0px; color: var(--text-color); line-height: 1.75; list-style-position: inside;&quot;&gt;Every close bracket has a corresponding open bracket of the same type.&lt;/li&gt;&lt;/ol&gt;&lt;/div&gt;" style="rounded=0;whiteSpace=wrap;html=1;" vertex="1" parent="1">
          <mxGeometry x="-118.75" y="2020" width="442.5" height="360" as="geometry" />
        </mxCell>
        <mxCell id="NIsI1Q-7MkNIX9lUCh3J-9" style="edgeStyle=orthogonalEdgeStyle;rounded=0;orthogonalLoop=1;jettySize=auto;html=1;entryX=0.5;entryY=0;entryDx=0;entryDy=0;" edge="1" parent="1" source="NIsI1Q-7MkNIX9lUCh3J-6" target="NIsI1Q-7MkNIX9lUCh3J-8">
          <mxGeometry relative="1" as="geometry" />
        </mxCell>
        <mxCell id="NIsI1Q-7MkNIX9lUCh3J-6" value="&lt;div&gt;Input: s = &quot;([{}])&quot;&lt;/div&gt;&lt;div&gt;&lt;br&gt;&lt;/div&gt;&lt;div&gt;Output: true&lt;/div&gt;&lt;div&gt;&lt;br&gt;&lt;/div&gt;" style="rounded=0;whiteSpace=wrap;html=1;" vertex="1" parent="1">
          <mxGeometry y="2450" width="205" height="120" as="geometry" />
        </mxCell>
        <mxCell id="NIsI1Q-7MkNIX9lUCh3J-11" style="edgeStyle=orthogonalEdgeStyle;rounded=0;orthogonalLoop=1;jettySize=auto;html=1;" edge="1" parent="1" source="NIsI1Q-7MkNIX9lUCh3J-8" target="NIsI1Q-7MkNIX9lUCh3J-10">
          <mxGeometry relative="1" as="geometry" />
        </mxCell>
        <mxCell id="NIsI1Q-7MkNIX9lUCh3J-8" value="Use Map to store key as close bracket and values as open bracket" style="rounded=0;whiteSpace=wrap;html=1;" vertex="1" parent="1">
          <mxGeometry x="42.5" y="2670" width="120" height="60" as="geometry" />
        </mxCell>
        <mxCell id="NIsI1Q-7MkNIX9lUCh3J-14" style="edgeStyle=orthogonalEdgeStyle;rounded=0;orthogonalLoop=1;jettySize=auto;html=1;" edge="1" parent="1" source="NIsI1Q-7MkNIX9lUCh3J-10" target="NIsI1Q-7MkNIX9lUCh3J-12">
          <mxGeometry relative="1" as="geometry" />
        </mxCell>
        <mxCell id="NIsI1Q-7MkNIX9lUCh3J-10" value="Use Stack to pop out open bracket values that matches the close brackets from the map while loop the string array" style="rounded=0;whiteSpace=wrap;html=1;" vertex="1" parent="1">
          <mxGeometry x="33.75" y="2780" width="137.5" height="90" as="geometry" />
        </mxCell>
        <mxCell id="NIsI1Q-7MkNIX9lUCh3J-12" value="if stack size is zero, then return true" style="rounded=0;whiteSpace=wrap;html=1;" vertex="1" parent="1">
          <mxGeometry x="43" y="2930" width="120" height="60" as="geometry" />
        </mxCell>
        <mxCell id="NIsI1Q-7MkNIX9lUCh3J-18" style="edgeStyle=orthogonalEdgeStyle;rounded=0;orthogonalLoop=1;jettySize=auto;html=1;" edge="1" parent="1" source="NIsI1Q-7MkNIX9lUCh3J-16" target="NIsI1Q-7MkNIX9lUCh3J-17">
          <mxGeometry relative="1" as="geometry" />
        </mxCell>
        <mxCell id="NIsI1Q-7MkNIX9lUCh3J-16" value="&lt;a style=&quot;border-width: 0px; border-style: solid; border-color: hsl(var(--sd-border)); border-image: initial; box-sizing: border-box; overflow-wrap: break-word; --tw-border-spacing-x: 0; --tw-border-spacing-y: 0; --tw-translate-x: 0; --tw-translate-y: 0; --tw-rotate: 0; --tw-skew-x: 0; --tw-skew-y: 0; --tw-scale-x: 1; --tw-scale-y: 1; --tw-pan-x: ; --tw-pan-y: ; --tw-pinch-zoom: ; --tw-scroll-snap-strictness: proximity; --tw-gradient-from-position: ; --tw-gradient-via-position: ; --tw-gradient-to-position: ; --tw-ordinal: ; --tw-slashed-zero: ; --tw-numeric-figure: ; --tw-numeric-spacing: ; --tw-numeric-fraction: ; --tw-ring-inset: ; --tw-ring-offset-width: 0px; --tw-ring-offset-color: #fff; --tw-ring-color: #3b82f680; --tw-ring-offset-shadow: 0 0 #0000; --tw-ring-shadow: 0 0 #0000; --tw-shadow: 0 0 #0000; --tw-shadow-colored: 0 0 #0000; --tw-blur: ; --tw-brightness: ; --tw-contrast: ; --tw-grayscale: ; --tw-hue-rotate: ; --tw-invert: ; --tw-saturate: ; --tw-sepia: ; --tw-drop-shadow: ; --tw-backdrop-blur: ; --tw-backdrop-brightness: ; --tw-backdrop-contrast: ; --tw-backdrop-grayscale: ; --tw-backdrop-hue-rotate: ; --tw-backdrop-invert: ; --tw-backdrop-opacity: ; --tw-backdrop-saturate: ; --tw-backdrop-sepia: ; text-decoration-line: none; text-decoration-thickness: inherit; text-decoration-style: inherit; text-decoration-color: inherit; touch-action: manipulation; outline: none; background-color: rgb(240, 240, 240); overflow: hidden; text-overflow: ellipsis; --tw-text-opacity: 1; font-family: -apple-system, &amp;quot;system-ui&amp;quot;, &amp;quot;Segoe UI&amp;quot;, Helvetica, Arial, sans-serif, &amp;quot;Apple Color Emoji&amp;quot;, &amp;quot;Segoe UI Emoji&amp;quot;; font-size: 24px; font-weight: 600; text-align: start;&quot; href=&quot;https://leetcode.com/problems/create-hello-world-function/&quot; class=&quot;no-underline hover:text-blue-s dark:hover:text-dark-blue-s truncate cursor-text whitespace-normal hover:!text-[inherit]&quot;&gt;2667. Create Hello World Function&lt;/a&gt;" style="rounded=0;whiteSpace=wrap;html=1;" vertex="1" parent="1">
          <mxGeometry x="750" y="1730" width="350" height="70" as="geometry" />
        </mxCell>
        <mxCell id="NIsI1Q-7MkNIX9lUCh3J-20" style="edgeStyle=orthogonalEdgeStyle;rounded=0;orthogonalLoop=1;jettySize=auto;html=1;" edge="1" parent="1" source="NIsI1Q-7MkNIX9lUCh3J-17" target="NIsI1Q-7MkNIX9lUCh3J-19">
          <mxGeometry relative="1" as="geometry" />
        </mxCell>
        <mxCell id="NIsI1Q-7MkNIX9lUCh3J-17" value="&lt;span style=&quot;color: rgb(38, 38, 38); font-family: -apple-system, &amp;quot;system-ui&amp;quot;, &amp;quot;Segoe UI&amp;quot;, Helvetica, Arial, sans-serif, &amp;quot;Apple Color Emoji&amp;quot;, &amp;quot;Segoe UI Emoji&amp;quot;; font-size: 14px; text-align: start; background-color: rgb(240, 240, 240);&quot;&gt;Write a function&amp;nbsp;&lt;/span&gt;&lt;code style=&quot;border: 1px solid rgba(0, 0, 0, 0.05); box-sizing: border-box; overflow-wrap: break-word; --tw-border-spacing-x: 0; --tw-border-spacing-y: 0; --tw-translate-x: 0; --tw-translate-y: 0; --tw-rotate: 0; --tw-skew-x: 0; --tw-skew-y: 0; --tw-scale-x: 1; --tw-scale-y: 1; --tw-pan-x: ; --tw-pan-y: ; --tw-pinch-zoom: ; --tw-scroll-snap-strictness: proximity; --tw-gradient-from-position: ; --tw-gradient-via-position: ; --tw-gradient-to-position: ; --tw-ordinal: ; --tw-slashed-zero: ; --tw-numeric-figure: ; --tw-numeric-spacing: ; --tw-numeric-fraction: ; --tw-ring-inset: ; --tw-ring-offset-width: 0px; --tw-ring-offset-color: #fff; --tw-ring-color: #3b82f680; --tw-ring-offset-shadow: 0 0 #0000; --tw-ring-shadow: 0 0 #0000; --tw-shadow: 0 0 #0000; --tw-shadow-colored: 0 0 #0000; --tw-blur: ; --tw-brightness: ; --tw-contrast: ; --tw-grayscale: ; --tw-hue-rotate: ; --tw-invert: ; --tw-saturate: ; --tw-sepia: ; --tw-drop-shadow: ; --tw-backdrop-blur: ; --tw-backdrop-brightness: ; --tw-backdrop-contrast: ; --tw-backdrop-grayscale: ; --tw-backdrop-hue-rotate: ; --tw-backdrop-invert: ; --tw-backdrop-opacity: ; --tw-backdrop-saturate: ; --tw-backdrop-sepia: ; font-family: Menlo, sans-serif; font-size: 0.75rem; background-color: rgba(0, 10, 32, 0.03); border-radius: 5px; color: rgba(38, 38, 38, 0.75); line-height: 1rem; padding: 0.125rem; white-space-collapse: preserve; text-align: start;&quot;&gt;createHelloWorld&lt;/code&gt;&lt;span style=&quot;color: rgb(38, 38, 38); font-family: -apple-system, &amp;quot;system-ui&amp;quot;, &amp;quot;Segoe UI&amp;quot;, Helvetica, Arial, sans-serif, &amp;quot;Apple Color Emoji&amp;quot;, &amp;quot;Segoe UI Emoji&amp;quot;; font-size: 14px; text-align: start; background-color: rgb(240, 240, 240);&quot;&gt;.&amp;nbsp;It should return a new function that always returns&amp;nbsp;&lt;/span&gt;&lt;code style=&quot;border: 1px solid rgba(0, 0, 0, 0.05); box-sizing: border-box; overflow-wrap: break-word; --tw-border-spacing-x: 0; --tw-border-spacing-y: 0; --tw-translate-x: 0; --tw-translate-y: 0; --tw-rotate: 0; --tw-skew-x: 0; --tw-skew-y: 0; --tw-scale-x: 1; --tw-scale-y: 1; --tw-pan-x: ; --tw-pan-y: ; --tw-pinch-zoom: ; --tw-scroll-snap-strictness: proximity; --tw-gradient-from-position: ; --tw-gradient-via-position: ; --tw-gradient-to-position: ; --tw-ordinal: ; --tw-slashed-zero: ; --tw-numeric-figure: ; --tw-numeric-spacing: ; --tw-numeric-fraction: ; --tw-ring-inset: ; --tw-ring-offset-width: 0px; --tw-ring-offset-color: #fff; --tw-ring-color: #3b82f680; --tw-ring-offset-shadow: 0 0 #0000; --tw-ring-shadow: 0 0 #0000; --tw-shadow: 0 0 #0000; --tw-shadow-colored: 0 0 #0000; --tw-blur: ; --tw-brightness: ; --tw-contrast: ; --tw-grayscale: ; --tw-hue-rotate: ; --tw-invert: ; --tw-saturate: ; --tw-sepia: ; --tw-drop-shadow: ; --tw-backdrop-blur: ; --tw-backdrop-brightness: ; --tw-backdrop-contrast: ; --tw-backdrop-grayscale: ; --tw-backdrop-hue-rotate: ; --tw-backdrop-invert: ; --tw-backdrop-opacity: ; --tw-backdrop-saturate: ; --tw-backdrop-sepia: ; font-family: Menlo, sans-serif; font-size: 0.75rem; background-color: rgba(0, 10, 32, 0.03); border-radius: 5px; color: rgba(38, 38, 38, 0.75); line-height: 1rem; padding: 0.125rem; white-space-collapse: preserve; text-align: start;&quot;&gt;&quot;Hello World&quot;&lt;/code&gt;&lt;span style=&quot;color: rgb(38, 38, 38); font-family: -apple-system, &amp;quot;system-ui&amp;quot;, &amp;quot;Segoe UI&amp;quot;, Helvetica, Arial, sans-serif, &amp;quot;Apple Color Emoji&amp;quot;, &amp;quot;Segoe UI Emoji&amp;quot;; font-size: 14px; text-align: start; background-color: rgb(240, 240, 240);&quot;&gt;.&lt;/span&gt;" style="rounded=0;whiteSpace=wrap;html=1;" vertex="1" parent="1">
          <mxGeometry x="770" y="1860" width="310" height="90" as="geometry" />
        </mxCell>
        <mxCell id="NIsI1Q-7MkNIX9lUCh3J-22" style="edgeStyle=orthogonalEdgeStyle;rounded=0;orthogonalLoop=1;jettySize=auto;html=1;" edge="1" parent="1" source="NIsI1Q-7MkNIX9lUCh3J-19" target="NIsI1Q-7MkNIX9lUCh3J-21">
          <mxGeometry relative="1" as="geometry" />
        </mxCell>
        <mxCell id="NIsI1Q-7MkNIX9lUCh3J-19" value="&lt;p style=&quot;border-width: 0px; border-style: solid; border-color: hsl(var(--sd-border)); border-image: initial; box-sizing: border-box; overflow-wrap: break-word; --tw-border-spacing-x: 0; --tw-border-spacing-y: 0; --tw-translate-x: 0; --tw-translate-y: 0; --tw-rotate: 0; --tw-skew-x: 0; --tw-skew-y: 0; --tw-scale-x: 1; --tw-scale-y: 1; --tw-pan-x: ; --tw-pan-y: ; --tw-pinch-zoom: ; --tw-scroll-snap-strictness: proximity; --tw-gradient-from-position: ; --tw-gradient-via-position: ; --tw-gradient-to-position: ; --tw-ordinal: ; --tw-slashed-zero: ; --tw-numeric-figure: ; --tw-numeric-spacing: ; --tw-numeric-fraction: ; --tw-ring-inset: ; --tw-ring-offset-width: 0px; --tw-ring-offset-color: #fff; --tw-ring-color: #3b82f680; --tw-ring-offset-shadow: 0 0 #0000; --tw-ring-shadow: 0 0 #0000; --tw-shadow: 0 0 #0000; --tw-shadow-colored: 0 0 #0000; --tw-blur: ; --tw-brightness: ; --tw-contrast: ; --tw-grayscale: ; --tw-hue-rotate: ; --tw-invert: ; --tw-saturate: ; --tw-sepia: ; --tw-drop-shadow: ; --tw-backdrop-blur: ; --tw-backdrop-brightness: ; --tw-backdrop-contrast: ; --tw-backdrop-grayscale: ; --tw-backdrop-hue-rotate: ; --tw-backdrop-invert: ; --tw-backdrop-opacity: ; --tw-backdrop-saturate: ; --tw-backdrop-sepia: ; margin: 0px 0px 1rem; color: rgb(38, 38, 38); font-family: -apple-system, &amp;quot;system-ui&amp;quot;, &amp;quot;Segoe UI&amp;quot;, Helvetica, Arial, sans-serif, &amp;quot;Apple Color Emoji&amp;quot;, &amp;quot;Segoe UI Emoji&amp;quot;; font-size: 14px; text-align: start; background-color: rgb(240, 240, 240);&quot;&gt;&lt;span style=&quot;border-width: 0px; border-style: solid; border-color: hsl(var(--sd-border)); border-image: initial; box-sizing: border-box; overflow-wrap: break-word; --tw-border-spacing-x: 0; --tw-border-spacing-y: 0; --tw-translate-x: 0; --tw-translate-y: 0; --tw-rotate: 0; --tw-skew-x: 0; --tw-skew-y: 0; --tw-scale-x: 1; --tw-scale-y: 1; --tw-pan-x: ; --tw-pan-y: ; --tw-pinch-zoom: ; --tw-scroll-snap-strictness: proximity; --tw-gradient-from-position: ; --tw-gradient-via-position: ; --tw-gradient-to-position: ; --tw-ordinal: ; --tw-slashed-zero: ; --tw-numeric-figure: ; --tw-numeric-spacing: ; --tw-numeric-fraction: ; --tw-ring-inset: ; --tw-ring-offset-width: 0px; --tw-ring-offset-color: #fff; --tw-ring-color: #3b82f680; --tw-ring-offset-shadow: 0 0 #0000; --tw-ring-shadow: 0 0 #0000; --tw-shadow: 0 0 #0000; --tw-shadow-colored: 0 0 #0000; --tw-blur: ; --tw-brightness: ; --tw-contrast: ; --tw-grayscale: ; --tw-hue-rotate: ; --tw-invert: ; --tw-saturate: ; --tw-sepia: ; --tw-drop-shadow: ; --tw-backdrop-blur: ; --tw-backdrop-brightness: ; --tw-backdrop-contrast: ; --tw-backdrop-grayscale: ; --tw-backdrop-hue-rotate: ; --tw-backdrop-invert: ; --tw-backdrop-opacity: ; --tw-backdrop-saturate: ; --tw-backdrop-sepia: ; font-weight: 700;&quot; class=&quot;example&quot;&gt;Example 2:&lt;/span&gt;&lt;/p&gt;&lt;pre style=&quot;border-width: 0px 0px 0px 2px; border-style: solid; border-color: var(--border-tertiary); border-image: initial; box-sizing: border-box; overflow-wrap: break-word; --tw-border-spacing-x: 0; --tw-border-spacing-y: 0; --tw-translate-x: 0; --tw-translate-y: 0; --tw-rotate: 0; --tw-skew-x: 0; --tw-skew-y: 0; --tw-scale-x: 1; --tw-scale-y: 1; --tw-pan-x: ; --tw-pan-y: ; --tw-pinch-zoom: ; --tw-scroll-snap-strictness: proximity; --tw-gradient-from-position: ; --tw-gradient-via-position: ; --tw-gradient-to-position: ; --tw-ordinal: ; --tw-slashed-zero: ; --tw-numeric-figure: ; --tw-numeric-spacing: ; --tw-numeric-fraction: ; --tw-ring-inset: ; --tw-ring-offset-width: 0px; --tw-ring-offset-color: #fff; --tw-ring-color: #3b82f680; --tw-ring-offset-shadow: 0 0 #0000; --tw-ring-shadow: 0 0 #0000; --tw-shadow: 0 0 #0000; --tw-shadow-colored: 0 0 #0000; --tw-blur: ; --tw-brightness: ; --tw-contrast: ; --tw-grayscale: ; --tw-hue-rotate: ; --tw-invert: ; --tw-saturate: ; --tw-sepia: ; --tw-drop-shadow: ; --tw-backdrop-blur: ; --tw-backdrop-brightness: ; --tw-backdrop-contrast: ; --tw-backdrop-grayscale: ; --tw-backdrop-hue-rotate: ; --tw-backdrop-invert: ; --tw-backdrop-opacity: ; --tw-backdrop-saturate: ; --tw-backdrop-sepia: ; font-family: Menlo, sans-serif; font-size: 14px; margin-top: 1rem; margin-bottom: 1rem; overflow: visible; color: var(--text-secondary); line-height: 1.25rem; padding-left: 1rem; text-wrap: wrap; text-align: start; background-color: rgb(240, 240, 240);&quot;&gt;&lt;span style=&quot;border-width: 0px; border-style: solid; border-color: hsl(var(--sd-border)); border-image: initial; box-sizing: border-box; overflow-wrap: break-word; --tw-border-spacing-x: 0; --tw-border-spacing-y: 0; --tw-translate-x: 0; --tw-translate-y: 0; --tw-rotate: 0; --tw-skew-x: 0; --tw-skew-y: 0; --tw-scale-x: 1; --tw-scale-y: 1; --tw-pan-x: ; --tw-pan-y: ; --tw-pinch-zoom: ; --tw-scroll-snap-strictness: proximity; --tw-gradient-from-position: ; --tw-gradient-via-position: ; --tw-gradient-to-position: ; --tw-ordinal: ; --tw-slashed-zero: ; --tw-numeric-figure: ; --tw-numeric-spacing: ; --tw-numeric-fraction: ; --tw-ring-inset: ; --tw-ring-offset-width: 0px; --tw-ring-offset-color: #fff; --tw-ring-color: #3b82f680; --tw-ring-offset-shadow: 0 0 #0000; --tw-ring-shadow: 0 0 #0000; --tw-shadow: 0 0 #0000; --tw-shadow-colored: 0 0 #0000; --tw-blur: ; --tw-brightness: ; --tw-contrast: ; --tw-grayscale: ; --tw-hue-rotate: ; --tw-invert: ; --tw-saturate: ; --tw-sepia: ; --tw-drop-shadow: ; --tw-backdrop-blur: ; --tw-backdrop-brightness: ; --tw-backdrop-contrast: ; --tw-backdrop-grayscale: ; --tw-backdrop-hue-rotate: ; --tw-backdrop-invert: ; --tw-backdrop-opacity: ; --tw-backdrop-saturate: ; --tw-backdrop-sepia: ; font-weight: 700; --tw-text-opacity: 1; color: rgb(38 38 38/var(--tw-text-opacity));&quot;&gt;Input:&lt;/span&gt; args = [{},null,42]&lt;br/&gt;&lt;span style=&quot;border-width: 0px; border-style: solid; border-color: hsl(var(--sd-border)); border-image: initial; box-sizing: border-box; overflow-wrap: break-word; --tw-border-spacing-x: 0; --tw-border-spacing-y: 0; --tw-translate-x: 0; --tw-translate-y: 0; --tw-rotate: 0; --tw-skew-x: 0; --tw-skew-y: 0; --tw-scale-x: 1; --tw-scale-y: 1; --tw-pan-x: ; --tw-pan-y: ; --tw-pinch-zoom: ; --tw-scroll-snap-strictness: proximity; --tw-gradient-from-position: ; --tw-gradient-via-position: ; --tw-gradient-to-position: ; --tw-ordinal: ; --tw-slashed-zero: ; --tw-numeric-figure: ; --tw-numeric-spacing: ; --tw-numeric-fraction: ; --tw-ring-inset: ; --tw-ring-offset-width: 0px; --tw-ring-offset-color: #fff; --tw-ring-color: #3b82f680; --tw-ring-offset-shadow: 0 0 #0000; --tw-ring-shadow: 0 0 #0000; --tw-shadow: 0 0 #0000; --tw-shadow-colored: 0 0 #0000; --tw-blur: ; --tw-brightness: ; --tw-contrast: ; --tw-grayscale: ; --tw-hue-rotate: ; --tw-invert: ; --tw-saturate: ; --tw-sepia: ; --tw-drop-shadow: ; --tw-backdrop-blur: ; --tw-backdrop-brightness: ; --tw-backdrop-contrast: ; --tw-backdrop-grayscale: ; --tw-backdrop-hue-rotate: ; --tw-backdrop-invert: ; --tw-backdrop-opacity: ; --tw-backdrop-saturate: ; --tw-backdrop-sepia: ; font-weight: 700; --tw-text-opacity: 1; color: rgb(38 38 38/var(--tw-text-opacity));&quot;&gt;Output:&lt;/span&gt; &quot;Hello World&quot;&lt;br/&gt;&lt;span style=&quot;border-width: 0px; border-style: solid; border-color: hsl(var(--sd-border)); border-image: initial; box-sizing: border-box; overflow-wrap: break-word; --tw-border-spacing-x: 0; --tw-border-spacing-y: 0; --tw-translate-x: 0; --tw-translate-y: 0; --tw-rotate: 0; --tw-skew-x: 0; --tw-skew-y: 0; --tw-scale-x: 1; --tw-scale-y: 1; --tw-pan-x: ; --tw-pan-y: ; --tw-pinch-zoom: ; --tw-scroll-snap-strictness: proximity; --tw-gradient-from-position: ; --tw-gradient-via-position: ; --tw-gradient-to-position: ; --tw-ordinal: ; --tw-slashed-zero: ; --tw-numeric-figure: ; --tw-numeric-spacing: ; --tw-numeric-fraction: ; --tw-ring-inset: ; --tw-ring-offset-width: 0px; --tw-ring-offset-color: #fff; --tw-ring-color: #3b82f680; --tw-ring-offset-shadow: 0 0 #0000; --tw-ring-shadow: 0 0 #0000; --tw-shadow: 0 0 #0000; --tw-shadow-colored: 0 0 #0000; --tw-blur: ; --tw-brightness: ; --tw-contrast: ; --tw-grayscale: ; --tw-hue-rotate: ; --tw-invert: ; --tw-saturate: ; --tw-sepia: ; --tw-drop-shadow: ; --tw-backdrop-blur: ; --tw-backdrop-brightness: ; --tw-backdrop-contrast: ; --tw-backdrop-grayscale: ; --tw-backdrop-hue-rotate: ; --tw-backdrop-invert: ; --tw-backdrop-opacity: ; --tw-backdrop-saturate: ; --tw-backdrop-sepia: ; font-weight: 700; --tw-text-opacity: 1; color: rgb(38 38 38/var(--tw-text-opacity));&quot;&gt;Explanation:&lt;/span&gt;&lt;br/&gt;const f = createHelloWorld();&lt;br/&gt;f({}, null, 42); // &quot;Hello World&quot;&lt;/pre&gt;" style="rounded=0;whiteSpace=wrap;html=1;" vertex="1" parent="1">
          <mxGeometry x="740" y="2030" width="370" height="180" as="geometry" />
        </mxCell>
        <mxCell id="NIsI1Q-7MkNIX9lUCh3J-21" value="return &quot;Hello World&quot;" style="rounded=0;whiteSpace=wrap;html=1;" vertex="1" parent="1">
          <mxGeometry x="865" y="2300" width="120" height="60" as="geometry" />
        </mxCell>
        <mxCell id="NIsI1Q-7MkNIX9lUCh3J-25" style="edgeStyle=orthogonalEdgeStyle;rounded=0;orthogonalLoop=1;jettySize=auto;html=1;" edge="1" parent="1" source="NIsI1Q-7MkNIX9lUCh3J-23" target="NIsI1Q-7MkNIX9lUCh3J-24">
          <mxGeometry relative="1" as="geometry" />
        </mxCell>
        <mxCell id="NIsI1Q-7MkNIX9lUCh3J-23" value="&lt;a style=&quot;border-width: 0px; border-style: solid; border-color: hsl(var(--sd-border)); border-image: initial; box-sizing: border-box; overflow-wrap: break-word; --tw-border-spacing-x: 0; --tw-border-spacing-y: 0; --tw-translate-x: 0; --tw-translate-y: 0; --tw-rotate: 0; --tw-skew-x: 0; --tw-skew-y: 0; --tw-scale-x: 1; --tw-scale-y: 1; --tw-pan-x: ; --tw-pan-y: ; --tw-pinch-zoom: ; --tw-scroll-snap-strictness: proximity; --tw-gradient-from-position: ; --tw-gradient-via-position: ; --tw-gradient-to-position: ; --tw-ordinal: ; --tw-slashed-zero: ; --tw-numeric-figure: ; --tw-numeric-spacing: ; --tw-numeric-fraction: ; --tw-ring-inset: ; --tw-ring-offset-width: 0px; --tw-ring-offset-color: #fff; --tw-ring-color: #3b82f680; --tw-ring-offset-shadow: 0 0 #0000; --tw-ring-shadow: 0 0 #0000; --tw-shadow: 0 0 #0000; --tw-shadow-colored: 0 0 #0000; --tw-blur: ; --tw-brightness: ; --tw-contrast: ; --tw-grayscale: ; --tw-hue-rotate: ; --tw-invert: ; --tw-saturate: ; --tw-sepia: ; --tw-drop-shadow: ; --tw-backdrop-blur: ; --tw-backdrop-brightness: ; --tw-backdrop-contrast: ; --tw-backdrop-grayscale: ; --tw-backdrop-hue-rotate: ; --tw-backdrop-invert: ; --tw-backdrop-opacity: ; --tw-backdrop-saturate: ; --tw-backdrop-sepia: ; text-decoration-line: none; text-decoration-thickness: inherit; text-decoration-style: inherit; text-decoration-color: inherit; touch-action: manipulation; outline: none; background-color: rgb(240, 240, 240); overflow: hidden; text-overflow: ellipsis; --tw-text-opacity: 1; font-family: -apple-system, &amp;quot;system-ui&amp;quot;, &amp;quot;Segoe UI&amp;quot;, Helvetica, Arial, sans-serif, &amp;quot;Apple Color Emoji&amp;quot;, &amp;quot;Segoe UI Emoji&amp;quot;; font-size: 24px; font-weight: 600; text-align: start;&quot; href=&quot;https://leetcode.com/problems/counter/&quot; class=&quot;no-underline hover:text-blue-s dark:hover:text-dark-blue-s truncate cursor-text whitespace-normal hover:!text-[inherit]&quot;&gt;2620. Counter&lt;/a&gt;" style="rounded=0;whiteSpace=wrap;html=1;" vertex="1" parent="1">
          <mxGeometry x="1480" y="1730" width="320" height="60" as="geometry" />
        </mxCell>
        <mxCell id="NIsI1Q-7MkNIX9lUCh3J-27" style="edgeStyle=orthogonalEdgeStyle;rounded=0;orthogonalLoop=1;jettySize=auto;html=1;" edge="1" parent="1" source="NIsI1Q-7MkNIX9lUCh3J-24" target="NIsI1Q-7MkNIX9lUCh3J-26">
          <mxGeometry relative="1" as="geometry" />
        </mxCell>
        <mxCell id="NIsI1Q-7MkNIX9lUCh3J-24" value="&lt;span style=&quot;color: rgb(38, 38, 38); font-family: -apple-system, &amp;quot;system-ui&amp;quot;, &amp;quot;Segoe UI&amp;quot;, Helvetica, Arial, sans-serif, &amp;quot;Apple Color Emoji&amp;quot;, &amp;quot;Segoe UI Emoji&amp;quot;; font-size: 14px; text-align: start; background-color: rgb(240, 240, 240);&quot;&gt;Given an integer&amp;nbsp;&lt;/span&gt;&lt;code style=&quot;border: 1px solid rgba(0, 0, 0, 0.05); box-sizing: border-box; overflow-wrap: break-word; --tw-border-spacing-x: 0; --tw-border-spacing-y: 0; --tw-translate-x: 0; --tw-translate-y: 0; --tw-rotate: 0; --tw-skew-x: 0; --tw-skew-y: 0; --tw-scale-x: 1; --tw-scale-y: 1; --tw-pan-x: ; --tw-pan-y: ; --tw-pinch-zoom: ; --tw-scroll-snap-strictness: proximity; --tw-gradient-from-position: ; --tw-gradient-via-position: ; --tw-gradient-to-position: ; --tw-ordinal: ; --tw-slashed-zero: ; --tw-numeric-figure: ; --tw-numeric-spacing: ; --tw-numeric-fraction: ; --tw-ring-inset: ; --tw-ring-offset-width: 0px; --tw-ring-offset-color: #fff; --tw-ring-color: #3b82f680; --tw-ring-offset-shadow: 0 0 #0000; --tw-ring-shadow: 0 0 #0000; --tw-shadow: 0 0 #0000; --tw-shadow-colored: 0 0 #0000; --tw-blur: ; --tw-brightness: ; --tw-contrast: ; --tw-grayscale: ; --tw-hue-rotate: ; --tw-invert: ; --tw-saturate: ; --tw-sepia: ; --tw-drop-shadow: ; --tw-backdrop-blur: ; --tw-backdrop-brightness: ; --tw-backdrop-contrast: ; --tw-backdrop-grayscale: ; --tw-backdrop-hue-rotate: ; --tw-backdrop-invert: ; --tw-backdrop-opacity: ; --tw-backdrop-saturate: ; --tw-backdrop-sepia: ; font-family: Menlo, sans-serif; font-size: 0.75rem; background-color: rgba(0, 10, 32, 0.03); border-radius: 5px; color: rgba(38, 38, 38, 0.75); line-height: 1rem; padding: 0.125rem; white-space-collapse: preserve; text-align: start;&quot;&gt;n&lt;/code&gt;&lt;span style=&quot;color: rgb(38, 38, 38); font-family: -apple-system, &amp;quot;system-ui&amp;quot;, &amp;quot;Segoe UI&amp;quot;, Helvetica, Arial, sans-serif, &amp;quot;Apple Color Emoji&amp;quot;, &amp;quot;Segoe UI Emoji&amp;quot;; font-size: 14px; text-align: start; background-color: rgb(240, 240, 240);&quot;&gt;,&amp;nbsp;return a&amp;nbsp;&lt;/span&gt;&lt;code style=&quot;border: 1px solid rgba(0, 0, 0, 0.05); box-sizing: border-box; overflow-wrap: break-word; --tw-border-spacing-x: 0; --tw-border-spacing-y: 0; --tw-translate-x: 0; --tw-translate-y: 0; --tw-rotate: 0; --tw-skew-x: 0; --tw-skew-y: 0; --tw-scale-x: 1; --tw-scale-y: 1; --tw-pan-x: ; --tw-pan-y: ; --tw-pinch-zoom: ; --tw-scroll-snap-strictness: proximity; --tw-gradient-from-position: ; --tw-gradient-via-position: ; --tw-gradient-to-position: ; --tw-ordinal: ; --tw-slashed-zero: ; --tw-numeric-figure: ; --tw-numeric-spacing: ; --tw-numeric-fraction: ; --tw-ring-inset: ; --tw-ring-offset-width: 0px; --tw-ring-offset-color: #fff; --tw-ring-color: #3b82f680; --tw-ring-offset-shadow: 0 0 #0000; --tw-ring-shadow: 0 0 #0000; --tw-shadow: 0 0 #0000; --tw-shadow-colored: 0 0 #0000; --tw-blur: ; --tw-brightness: ; --tw-contrast: ; --tw-grayscale: ; --tw-hue-rotate: ; --tw-invert: ; --tw-saturate: ; --tw-sepia: ; --tw-drop-shadow: ; --tw-backdrop-blur: ; --tw-backdrop-brightness: ; --tw-backdrop-contrast: ; --tw-backdrop-grayscale: ; --tw-backdrop-hue-rotate: ; --tw-backdrop-invert: ; --tw-backdrop-opacity: ; --tw-backdrop-saturate: ; --tw-backdrop-sepia: ; font-family: Menlo, sans-serif; font-size: 0.75rem; background-color: rgba(0, 10, 32, 0.03); border-radius: 5px; color: rgba(38, 38, 38, 0.75); line-height: 1rem; padding: 0.125rem; white-space-collapse: preserve; text-align: start;&quot;&gt;counter&lt;/code&gt;&lt;span style=&quot;color: rgb(38, 38, 38); font-family: -apple-system, &amp;quot;system-ui&amp;quot;, &amp;quot;Segoe UI&amp;quot;, Helvetica, Arial, sans-serif, &amp;quot;Apple Color Emoji&amp;quot;, &amp;quot;Segoe UI Emoji&amp;quot;; font-size: 14px; text-align: start; background-color: rgb(240, 240, 240);&quot;&gt;&amp;nbsp;function. This&amp;nbsp;&lt;/span&gt;&lt;code style=&quot;border: 1px solid rgba(0, 0, 0, 0.05); box-sizing: border-box; overflow-wrap: break-word; --tw-border-spacing-x: 0; --tw-border-spacing-y: 0; --tw-translate-x: 0; --tw-translate-y: 0; --tw-rotate: 0; --tw-skew-x: 0; --tw-skew-y: 0; --tw-scale-x: 1; --tw-scale-y: 1; --tw-pan-x: ; --tw-pan-y: ; --tw-pinch-zoom: ; --tw-scroll-snap-strictness: proximity; --tw-gradient-from-position: ; --tw-gradient-via-position: ; --tw-gradient-to-position: ; --tw-ordinal: ; --tw-slashed-zero: ; --tw-numeric-figure: ; --tw-numeric-spacing: ; --tw-numeric-fraction: ; --tw-ring-inset: ; --tw-ring-offset-width: 0px; --tw-ring-offset-color: #fff; --tw-ring-color: #3b82f680; --tw-ring-offset-shadow: 0 0 #0000; --tw-ring-shadow: 0 0 #0000; --tw-shadow: 0 0 #0000; --tw-shadow-colored: 0 0 #0000; --tw-blur: ; --tw-brightness: ; --tw-contrast: ; --tw-grayscale: ; --tw-hue-rotate: ; --tw-invert: ; --tw-saturate: ; --tw-sepia: ; --tw-drop-shadow: ; --tw-backdrop-blur: ; --tw-backdrop-brightness: ; --tw-backdrop-contrast: ; --tw-backdrop-grayscale: ; --tw-backdrop-hue-rotate: ; --tw-backdrop-invert: ; --tw-backdrop-opacity: ; --tw-backdrop-saturate: ; --tw-backdrop-sepia: ; font-family: Menlo, sans-serif; font-size: 0.75rem; background-color: rgba(0, 10, 32, 0.03); border-radius: 5px; color: rgba(38, 38, 38, 0.75); line-height: 1rem; padding: 0.125rem; white-space-collapse: preserve; text-align: start;&quot;&gt;counter&lt;/code&gt;&lt;span style=&quot;color: rgb(38, 38, 38); font-family: -apple-system, &amp;quot;system-ui&amp;quot;, &amp;quot;Segoe UI&amp;quot;, Helvetica, Arial, sans-serif, &amp;quot;Apple Color Emoji&amp;quot;, &amp;quot;Segoe UI Emoji&amp;quot;; font-size: 14px; text-align: start; background-color: rgb(240, 240, 240);&quot;&gt;&amp;nbsp;function initially returns&amp;nbsp;&lt;/span&gt;&lt;code style=&quot;border: 1px solid rgba(0, 0, 0, 0.05); box-sizing: border-box; overflow-wrap: break-word; --tw-border-spacing-x: 0; --tw-border-spacing-y: 0; --tw-translate-x: 0; --tw-translate-y: 0; --tw-rotate: 0; --tw-skew-x: 0; --tw-skew-y: 0; --tw-scale-x: 1; --tw-scale-y: 1; --tw-pan-x: ; --tw-pan-y: ; --tw-pinch-zoom: ; --tw-scroll-snap-strictness: proximity; --tw-gradient-from-position: ; --tw-gradient-via-position: ; --tw-gradient-to-position: ; --tw-ordinal: ; --tw-slashed-zero: ; --tw-numeric-figure: ; --tw-numeric-spacing: ; --tw-numeric-fraction: ; --tw-ring-inset: ; --tw-ring-offset-width: 0px; --tw-ring-offset-color: #fff; --tw-ring-color: #3b82f680; --tw-ring-offset-shadow: 0 0 #0000; --tw-ring-shadow: 0 0 #0000; --tw-shadow: 0 0 #0000; --tw-shadow-colored: 0 0 #0000; --tw-blur: ; --tw-brightness: ; --tw-contrast: ; --tw-grayscale: ; --tw-hue-rotate: ; --tw-invert: ; --tw-saturate: ; --tw-sepia: ; --tw-drop-shadow: ; --tw-backdrop-blur: ; --tw-backdrop-brightness: ; --tw-backdrop-contrast: ; --tw-backdrop-grayscale: ; --tw-backdrop-hue-rotate: ; --tw-backdrop-invert: ; --tw-backdrop-opacity: ; --tw-backdrop-saturate: ; --tw-backdrop-sepia: ; font-family: Menlo, sans-serif; font-size: 0.75rem; background-color: rgba(0, 10, 32, 0.03); border-radius: 5px; color: rgba(38, 38, 38, 0.75); line-height: 1rem; padding: 0.125rem; white-space-collapse: preserve; text-align: start;&quot;&gt;n&lt;/code&gt;&lt;span style=&quot;color: rgb(38, 38, 38); font-family: -apple-system, &amp;quot;system-ui&amp;quot;, &amp;quot;Segoe UI&amp;quot;, Helvetica, Arial, sans-serif, &amp;quot;Apple Color Emoji&amp;quot;, &amp;quot;Segoe UI Emoji&amp;quot;; font-size: 14px; text-align: start; background-color: rgb(240, 240, 240);&quot;&gt;&amp;nbsp;and then returns 1 more than the previous value every subsequent time it is called (&lt;/span&gt;&lt;code style=&quot;border: 1px solid rgba(0, 0, 0, 0.05); box-sizing: border-box; overflow-wrap: break-word; --tw-border-spacing-x: 0; --tw-border-spacing-y: 0; --tw-translate-x: 0; --tw-translate-y: 0; --tw-rotate: 0; --tw-skew-x: 0; --tw-skew-y: 0; --tw-scale-x: 1; --tw-scale-y: 1; --tw-pan-x: ; --tw-pan-y: ; --tw-pinch-zoom: ; --tw-scroll-snap-strictness: proximity; --tw-gradient-from-position: ; --tw-gradient-via-position: ; --tw-gradient-to-position: ; --tw-ordinal: ; --tw-slashed-zero: ; --tw-numeric-figure: ; --tw-numeric-spacing: ; --tw-numeric-fraction: ; --tw-ring-inset: ; --tw-ring-offset-width: 0px; --tw-ring-offset-color: #fff; --tw-ring-color: #3b82f680; --tw-ring-offset-shadow: 0 0 #0000; --tw-ring-shadow: 0 0 #0000; --tw-shadow: 0 0 #0000; --tw-shadow-colored: 0 0 #0000; --tw-blur: ; --tw-brightness: ; --tw-contrast: ; --tw-grayscale: ; --tw-hue-rotate: ; --tw-invert: ; --tw-saturate: ; --tw-sepia: ; --tw-drop-shadow: ; --tw-backdrop-blur: ; --tw-backdrop-brightness: ; --tw-backdrop-contrast: ; --tw-backdrop-grayscale: ; --tw-backdrop-hue-rotate: ; --tw-backdrop-invert: ; --tw-backdrop-opacity: ; --tw-backdrop-saturate: ; --tw-backdrop-sepia: ; font-family: Menlo, sans-serif; font-size: 0.75rem; background-color: rgba(0, 10, 32, 0.03); border-radius: 5px; color: rgba(38, 38, 38, 0.75); line-height: 1rem; padding: 0.125rem; white-space-collapse: preserve; text-align: start;&quot;&gt;n&lt;/code&gt;&lt;span style=&quot;color: rgb(38, 38, 38); font-family: -apple-system, &amp;quot;system-ui&amp;quot;, &amp;quot;Segoe UI&amp;quot;, Helvetica, Arial, sans-serif, &amp;quot;Apple Color Emoji&amp;quot;, &amp;quot;Segoe UI Emoji&amp;quot;; font-size: 14px; text-align: start; background-color: rgb(240, 240, 240);&quot;&gt;,&amp;nbsp;&lt;/span&gt;&lt;code style=&quot;border: 1px solid rgba(0, 0, 0, 0.05); box-sizing: border-box; overflow-wrap: break-word; --tw-border-spacing-x: 0; --tw-border-spacing-y: 0; --tw-translate-x: 0; --tw-translate-y: 0; --tw-rotate: 0; --tw-skew-x: 0; --tw-skew-y: 0; --tw-scale-x: 1; --tw-scale-y: 1; --tw-pan-x: ; --tw-pan-y: ; --tw-pinch-zoom: ; --tw-scroll-snap-strictness: proximity; --tw-gradient-from-position: ; --tw-gradient-via-position: ; --tw-gradient-to-position: ; --tw-ordinal: ; --tw-slashed-zero: ; --tw-numeric-figure: ; --tw-numeric-spacing: ; --tw-numeric-fraction: ; --tw-ring-inset: ; --tw-ring-offset-width: 0px; --tw-ring-offset-color: #fff; --tw-ring-color: #3b82f680; --tw-ring-offset-shadow: 0 0 #0000; --tw-ring-shadow: 0 0 #0000; --tw-shadow: 0 0 #0000; --tw-shadow-colored: 0 0 #0000; --tw-blur: ; --tw-brightness: ; --tw-contrast: ; --tw-grayscale: ; --tw-hue-rotate: ; --tw-invert: ; --tw-saturate: ; --tw-sepia: ; --tw-drop-shadow: ; --tw-backdrop-blur: ; --tw-backdrop-brightness: ; --tw-backdrop-contrast: ; --tw-backdrop-grayscale: ; --tw-backdrop-hue-rotate: ; --tw-backdrop-invert: ; --tw-backdrop-opacity: ; --tw-backdrop-saturate: ; --tw-backdrop-sepia: ; font-family: Menlo, sans-serif; font-size: 0.75rem; background-color: rgba(0, 10, 32, 0.03); border-radius: 5px; color: rgba(38, 38, 38, 0.75); line-height: 1rem; padding: 0.125rem; white-space-collapse: preserve; text-align: start;&quot;&gt;n + 1&lt;/code&gt;&lt;span style=&quot;color: rgb(38, 38, 38); font-family: -apple-system, &amp;quot;system-ui&amp;quot;, &amp;quot;Segoe UI&amp;quot;, Helvetica, Arial, sans-serif, &amp;quot;Apple Color Emoji&amp;quot;, &amp;quot;Segoe UI Emoji&amp;quot;; font-size: 14px; text-align: start; background-color: rgb(240, 240, 240);&quot;&gt;,&amp;nbsp;&lt;/span&gt;&lt;code style=&quot;border: 1px solid rgba(0, 0, 0, 0.05); box-sizing: border-box; overflow-wrap: break-word; --tw-border-spacing-x: 0; --tw-border-spacing-y: 0; --tw-translate-x: 0; --tw-translate-y: 0; --tw-rotate: 0; --tw-skew-x: 0; --tw-skew-y: 0; --tw-scale-x: 1; --tw-scale-y: 1; --tw-pan-x: ; --tw-pan-y: ; --tw-pinch-zoom: ; --tw-scroll-snap-strictness: proximity; --tw-gradient-from-position: ; --tw-gradient-via-position: ; --tw-gradient-to-position: ; --tw-ordinal: ; --tw-slashed-zero: ; --tw-numeric-figure: ; --tw-numeric-spacing: ; --tw-numeric-fraction: ; --tw-ring-inset: ; --tw-ring-offset-width: 0px; --tw-ring-offset-color: #fff; --tw-ring-color: #3b82f680; --tw-ring-offset-shadow: 0 0 #0000; --tw-ring-shadow: 0 0 #0000; --tw-shadow: 0 0 #0000; --tw-shadow-colored: 0 0 #0000; --tw-blur: ; --tw-brightness: ; --tw-contrast: ; --tw-grayscale: ; --tw-hue-rotate: ; --tw-invert: ; --tw-saturate: ; --tw-sepia: ; --tw-drop-shadow: ; --tw-backdrop-blur: ; --tw-backdrop-brightness: ; --tw-backdrop-contrast: ; --tw-backdrop-grayscale: ; --tw-backdrop-hue-rotate: ; --tw-backdrop-invert: ; --tw-backdrop-opacity: ; --tw-backdrop-saturate: ; --tw-backdrop-sepia: ; font-family: Menlo, sans-serif; font-size: 0.75rem; background-color: rgba(0, 10, 32, 0.03); border-radius: 5px; color: rgba(38, 38, 38, 0.75); line-height: 1rem; padding: 0.125rem; white-space-collapse: preserve; text-align: start;&quot;&gt;n + 2&lt;/code&gt;&lt;span style=&quot;color: rgb(38, 38, 38); font-family: -apple-system, &amp;quot;system-ui&amp;quot;, &amp;quot;Segoe UI&amp;quot;, Helvetica, Arial, sans-serif, &amp;quot;Apple Color Emoji&amp;quot;, &amp;quot;Segoe UI Emoji&amp;quot;; font-size: 14px; text-align: start; background-color: rgb(240, 240, 240);&quot;&gt;, etc).&lt;/span&gt;" style="rounded=0;whiteSpace=wrap;html=1;" vertex="1" parent="1">
          <mxGeometry x="1415" y="1855" width="450" height="85" as="geometry" />
        </mxCell>
        <mxCell id="NIsI1Q-7MkNIX9lUCh3J-29" style="edgeStyle=orthogonalEdgeStyle;rounded=0;orthogonalLoop=1;jettySize=auto;html=1;" edge="1" parent="1" source="NIsI1Q-7MkNIX9lUCh3J-26" target="NIsI1Q-7MkNIX9lUCh3J-28">
          <mxGeometry relative="1" as="geometry" />
        </mxCell>
        <mxCell id="NIsI1Q-7MkNIX9lUCh3J-26" value="&lt;p style=&quot;border-width: 0px; border-style: solid; border-color: hsl(var(--sd-border)); border-image: initial; box-sizing: border-box; overflow-wrap: break-word; --tw-border-spacing-x: 0; --tw-border-spacing-y: 0; --tw-translate-x: 0; --tw-translate-y: 0; --tw-rotate: 0; --tw-skew-x: 0; --tw-skew-y: 0; --tw-scale-x: 1; --tw-scale-y: 1; --tw-pan-x: ; --tw-pan-y: ; --tw-pinch-zoom: ; --tw-scroll-snap-strictness: proximity; --tw-gradient-from-position: ; --tw-gradient-via-position: ; --tw-gradient-to-position: ; --tw-ordinal: ; --tw-slashed-zero: ; --tw-numeric-figure: ; --tw-numeric-spacing: ; --tw-numeric-fraction: ; --tw-ring-inset: ; --tw-ring-offset-width: 0px; --tw-ring-offset-color: #fff; --tw-ring-color: #3b82f680; --tw-ring-offset-shadow: 0 0 #0000; --tw-ring-shadow: 0 0 #0000; --tw-shadow: 0 0 #0000; --tw-shadow-colored: 0 0 #0000; --tw-blur: ; --tw-brightness: ; --tw-contrast: ; --tw-grayscale: ; --tw-hue-rotate: ; --tw-invert: ; --tw-saturate: ; --tw-sepia: ; --tw-drop-shadow: ; --tw-backdrop-blur: ; --tw-backdrop-brightness: ; --tw-backdrop-contrast: ; --tw-backdrop-grayscale: ; --tw-backdrop-hue-rotate: ; --tw-backdrop-invert: ; --tw-backdrop-opacity: ; --tw-backdrop-saturate: ; --tw-backdrop-sepia: ; margin: 0px 0px 1rem; color: rgb(38, 38, 38); font-family: -apple-system, &amp;quot;system-ui&amp;quot;, &amp;quot;Segoe UI&amp;quot;, Helvetica, Arial, sans-serif, &amp;quot;Apple Color Emoji&amp;quot;, &amp;quot;Segoe UI Emoji&amp;quot;; font-size: 14px; text-align: start; background-color: rgb(240, 240, 240);&quot;&gt;&lt;span style=&quot;border-width: 0px; border-style: solid; border-color: hsl(var(--sd-border)); border-image: initial; box-sizing: border-box; overflow-wrap: break-word; --tw-border-spacing-x: 0; --tw-border-spacing-y: 0; --tw-translate-x: 0; --tw-translate-y: 0; --tw-rotate: 0; --tw-skew-x: 0; --tw-skew-y: 0; --tw-scale-x: 1; --tw-scale-y: 1; --tw-pan-x: ; --tw-pan-y: ; --tw-pinch-zoom: ; --tw-scroll-snap-strictness: proximity; --tw-gradient-from-position: ; --tw-gradient-via-position: ; --tw-gradient-to-position: ; --tw-ordinal: ; --tw-slashed-zero: ; --tw-numeric-figure: ; --tw-numeric-spacing: ; --tw-numeric-fraction: ; --tw-ring-inset: ; --tw-ring-offset-width: 0px; --tw-ring-offset-color: #fff; --tw-ring-color: #3b82f680; --tw-ring-offset-shadow: 0 0 #0000; --tw-ring-shadow: 0 0 #0000; --tw-shadow: 0 0 #0000; --tw-shadow-colored: 0 0 #0000; --tw-blur: ; --tw-brightness: ; --tw-contrast: ; --tw-grayscale: ; --tw-hue-rotate: ; --tw-invert: ; --tw-saturate: ; --tw-sepia: ; --tw-drop-shadow: ; --tw-backdrop-blur: ; --tw-backdrop-brightness: ; --tw-backdrop-contrast: ; --tw-backdrop-grayscale: ; --tw-backdrop-hue-rotate: ; --tw-backdrop-invert: ; --tw-backdrop-opacity: ; --tw-backdrop-saturate: ; --tw-backdrop-sepia: ; font-weight: 700;&quot; class=&quot;example&quot;&gt;Example 2:&lt;/span&gt;&lt;/p&gt;&lt;pre style=&quot;border-width: 0px 0px 0px 2px; border-style: solid; border-color: var(--border-tertiary); border-image: initial; box-sizing: border-box; overflow-wrap: break-word; --tw-border-spacing-x: 0; --tw-border-spacing-y: 0; --tw-translate-x: 0; --tw-translate-y: 0; --tw-rotate: 0; --tw-skew-x: 0; --tw-skew-y: 0; --tw-scale-x: 1; --tw-scale-y: 1; --tw-pan-x: ; --tw-pan-y: ; --tw-pinch-zoom: ; --tw-scroll-snap-strictness: proximity; --tw-gradient-from-position: ; --tw-gradient-via-position: ; --tw-gradient-to-position: ; --tw-ordinal: ; --tw-slashed-zero: ; --tw-numeric-figure: ; --tw-numeric-spacing: ; --tw-numeric-fraction: ; --tw-ring-inset: ; --tw-ring-offset-width: 0px; --tw-ring-offset-color: #fff; --tw-ring-color: #3b82f680; --tw-ring-offset-shadow: 0 0 #0000; --tw-ring-shadow: 0 0 #0000; --tw-shadow: 0 0 #0000; --tw-shadow-colored: 0 0 #0000; --tw-blur: ; --tw-brightness: ; --tw-contrast: ; --tw-grayscale: ; --tw-hue-rotate: ; --tw-invert: ; --tw-saturate: ; --tw-sepia: ; --tw-drop-shadow: ; --tw-backdrop-blur: ; --tw-backdrop-brightness: ; --tw-backdrop-contrast: ; --tw-backdrop-grayscale: ; --tw-backdrop-hue-rotate: ; --tw-backdrop-invert: ; --tw-backdrop-opacity: ; --tw-backdrop-saturate: ; --tw-backdrop-sepia: ; font-family: Menlo, sans-serif; font-size: 14px; margin-top: 1rem; margin-bottom: 1rem; overflow: visible; color: var(--text-secondary); line-height: 1.25rem; padding-left: 1rem; text-wrap: wrap; text-align: start; background-color: rgb(240, 240, 240);&quot;&gt;&lt;span style=&quot;border-width: 0px; border-style: solid; border-color: hsl(var(--sd-border)); border-image: initial; box-sizing: border-box; overflow-wrap: break-word; --tw-border-spacing-x: 0; --tw-border-spacing-y: 0; --tw-translate-x: 0; --tw-translate-y: 0; --tw-rotate: 0; --tw-skew-x: 0; --tw-skew-y: 0; --tw-scale-x: 1; --tw-scale-y: 1; --tw-pan-x: ; --tw-pan-y: ; --tw-pinch-zoom: ; --tw-scroll-snap-strictness: proximity; --tw-gradient-from-position: ; --tw-gradient-via-position: ; --tw-gradient-to-position: ; --tw-ordinal: ; --tw-slashed-zero: ; --tw-numeric-figure: ; --tw-numeric-spacing: ; --tw-numeric-fraction: ; --tw-ring-inset: ; --tw-ring-offset-width: 0px; --tw-ring-offset-color: #fff; --tw-ring-color: #3b82f680; --tw-ring-offset-shadow: 0 0 #0000; --tw-ring-shadow: 0 0 #0000; --tw-shadow: 0 0 #0000; --tw-shadow-colored: 0 0 #0000; --tw-blur: ; --tw-brightness: ; --tw-contrast: ; --tw-grayscale: ; --tw-hue-rotate: ; --tw-invert: ; --tw-saturate: ; --tw-sepia: ; --tw-drop-shadow: ; --tw-backdrop-blur: ; --tw-backdrop-brightness: ; --tw-backdrop-contrast: ; --tw-backdrop-grayscale: ; --tw-backdrop-hue-rotate: ; --tw-backdrop-invert: ; --tw-backdrop-opacity: ; --tw-backdrop-saturate: ; --tw-backdrop-sepia: ; font-weight: 700; --tw-text-opacity: 1; color: rgb(38 38 38/var(--tw-text-opacity));&quot;&gt;Input:&lt;/span&gt; &lt;br/&gt;n = -2&lt;br/&gt;[&quot;call&quot;,&quot;call&quot;,&quot;call&quot;,&quot;call&quot;,&quot;call&quot;]&lt;br/&gt;&lt;span style=&quot;border-width: 0px; border-style: solid; border-color: hsl(var(--sd-border)); border-image: initial; box-sizing: border-box; overflow-wrap: break-word; --tw-border-spacing-x: 0; --tw-border-spacing-y: 0; --tw-translate-x: 0; --tw-translate-y: 0; --tw-rotate: 0; --tw-skew-x: 0; --tw-skew-y: 0; --tw-scale-x: 1; --tw-scale-y: 1; --tw-pan-x: ; --tw-pan-y: ; --tw-pinch-zoom: ; --tw-scroll-snap-strictness: proximity; --tw-gradient-from-position: ; --tw-gradient-via-position: ; --tw-gradient-to-position: ; --tw-ordinal: ; --tw-slashed-zero: ; --tw-numeric-figure: ; --tw-numeric-spacing: ; --tw-numeric-fraction: ; --tw-ring-inset: ; --tw-ring-offset-width: 0px; --tw-ring-offset-color: #fff; --tw-ring-color: #3b82f680; --tw-ring-offset-shadow: 0 0 #0000; --tw-ring-shadow: 0 0 #0000; --tw-shadow: 0 0 #0000; --tw-shadow-colored: 0 0 #0000; --tw-blur: ; --tw-brightness: ; --tw-contrast: ; --tw-grayscale: ; --tw-hue-rotate: ; --tw-invert: ; --tw-saturate: ; --tw-sepia: ; --tw-drop-shadow: ; --tw-backdrop-blur: ; --tw-backdrop-brightness: ; --tw-backdrop-contrast: ; --tw-backdrop-grayscale: ; --tw-backdrop-hue-rotate: ; --tw-backdrop-invert: ; --tw-backdrop-opacity: ; --tw-backdrop-saturate: ; --tw-backdrop-sepia: ; font-weight: 700; --tw-text-opacity: 1; color: rgb(38 38 38/var(--tw-text-opacity));&quot;&gt;Output:&lt;/span&gt; [-2,-1,0,1,2]&lt;br/&gt;&lt;span style=&quot;border-width: 0px; border-style: solid; border-color: hsl(var(--sd-border)); border-image: initial; box-sizing: border-box; overflow-wrap: break-word; --tw-border-spacing-x: 0; --tw-border-spacing-y: 0; --tw-translate-x: 0; --tw-translate-y: 0; --tw-rotate: 0; --tw-skew-x: 0; --tw-skew-y: 0; --tw-scale-x: 1; --tw-scale-y: 1; --tw-pan-x: ; --tw-pan-y: ; --tw-pinch-zoom: ; --tw-scroll-snap-strictness: proximity; --tw-gradient-from-position: ; --tw-gradient-via-position: ; --tw-gradient-to-position: ; --tw-ordinal: ; --tw-slashed-zero: ; --tw-numeric-figure: ; --tw-numeric-spacing: ; --tw-numeric-fraction: ; --tw-ring-inset: ; --tw-ring-offset-width: 0px; --tw-ring-offset-color: #fff; --tw-ring-color: #3b82f680; --tw-ring-offset-shadow: 0 0 #0000; --tw-ring-shadow: 0 0 #0000; --tw-shadow: 0 0 #0000; --tw-shadow-colored: 0 0 #0000; --tw-blur: ; --tw-brightness: ; --tw-contrast: ; --tw-grayscale: ; --tw-hue-rotate: ; --tw-invert: ; --tw-saturate: ; --tw-sepia: ; --tw-drop-shadow: ; --tw-backdrop-blur: ; --tw-backdrop-brightness: ; --tw-backdrop-contrast: ; --tw-backdrop-grayscale: ; --tw-backdrop-hue-rotate: ; --tw-backdrop-invert: ; --tw-backdrop-opacity: ; --tw-backdrop-saturate: ; --tw-backdrop-sepia: ; font-weight: 700; --tw-text-opacity: 1; color: rgb(38 38 38/var(--tw-text-opacity));&quot;&gt;Explanation:&lt;/span&gt; counter() initially returns -2. Then increases after each sebsequent call.&lt;/pre&gt;" style="rounded=0;whiteSpace=wrap;html=1;" vertex="1" parent="1">
          <mxGeometry x="1425" y="1990" width="430" height="230" as="geometry" />
        </mxCell>
        <mxCell id="NIsI1Q-7MkNIX9lUCh3J-28" value="Create a global variable and maintain the count of that variable increasing by it and return it" style="rounded=0;whiteSpace=wrap;html=1;" vertex="1" parent="1">
          <mxGeometry x="1545" y="2270" width="190" height="120" as="geometry" />
        </mxCell>
      </root>
    </mxGraphModel>
  </diagram>
</mxfile>
